<mxfile host="app.diagrams.net" agent="Mozilla/5.0 (Windows NT 10.0; Win64; x64) AppleWebKit/537.36 (KHTML, like Gecko) Chrome/134.0.0.0 Safari/537.36" version="26.1.1">
  <diagram name="第 1 页" id="b01kbvbIfaKDo9PnE9iw">
    <mxGraphModel dx="2514" dy="878" grid="1" gridSize="10" guides="1" tooltips="1" connect="1" arrows="1" fold="1" page="1" pageScale="1" pageWidth="827" pageHeight="1169" math="0" shadow="0">
      <root>
        <mxCell id="0" />
        <mxCell id="1" parent="0" />
        <mxCell id="lOrVEeAkQtlxeltVuI04-27" value="网关" style="rounded=0;whiteSpace=wrap;html=1;" vertex="1" parent="1">
          <mxGeometry x="110.5" y="871.67" width="907.5" height="85" as="geometry" />
        </mxCell>
        <mxCell id="lOrVEeAkQtlxeltVuI04-11" value="" style="rounded=1;whiteSpace=wrap;html=1;" vertex="1" parent="1">
          <mxGeometry x="130" y="550" width="850" height="220" as="geometry" />
        </mxCell>
        <mxCell id="R9i5wPIuISrtGQEBOl63-2" value="" style="rounded=0;whiteSpace=wrap;html=1;" parent="1" vertex="1">
          <mxGeometry x="10" y="980" width="1190" height="10" as="geometry" />
        </mxCell>
        <mxCell id="R9i5wPIuISrtGQEBOl63-3" value="" style="rounded=0;whiteSpace=wrap;html=1;" parent="1" vertex="1">
          <mxGeometry y="330" width="1190" height="10" as="geometry" />
        </mxCell>
        <mxCell id="lOrVEeAkQtlxeltVuI04-39" style="rounded=0;orthogonalLoop=1;jettySize=auto;html=1;exitX=0.5;exitY=1;exitDx=0;exitDy=0;" edge="1" parent="1" source="R9i5wPIuISrtGQEBOl63-7" target="lOrVEeAkQtlxeltVuI04-36">
          <mxGeometry relative="1" as="geometry" />
        </mxCell>
        <mxCell id="R9i5wPIuISrtGQEBOl63-7" value="客户端" style="rounded=1;whiteSpace=wrap;html=1;" parent="1" vertex="1">
          <mxGeometry x="490" y="180" width="120" height="60" as="geometry" />
        </mxCell>
        <mxCell id="R9i5wPIuISrtGQEBOl63-9" value="kungfu" style="rounded=0;whiteSpace=wrap;html=1;" parent="1" vertex="1">
          <mxGeometry x="311" y="1125" width="120" height="60" as="geometry" />
        </mxCell>
        <mxCell id="R9i5wPIuISrtGQEBOl63-10" value="kungfu" style="rounded=0;whiteSpace=wrap;html=1;" parent="1" vertex="1">
          <mxGeometry x="670" y="1125" width="120" height="60" as="geometry" />
        </mxCell>
        <mxCell id="R9i5wPIuISrtGQEBOl63-11" value="kungfu" style="rounded=0;whiteSpace=wrap;html=1;" parent="1" vertex="1">
          <mxGeometry x="495" y="1125" width="120" height="60" as="geometry" />
        </mxCell>
        <mxCell id="R9i5wPIuISrtGQEBOl63-13" value="事件总线" style="rounded=0;whiteSpace=wrap;html=1;" parent="1" vertex="1">
          <mxGeometry x="1080" y="520" width="60" height="270" as="geometry" />
        </mxCell>
        <mxCell id="R9i5wPIuISrtGQEBOl63-14" value="策略管理器" style="rounded=1;whiteSpace=wrap;html=1;" parent="1" vertex="1">
          <mxGeometry x="729.75" y="617.5" width="229" height="80" as="geometry" />
        </mxCell>
        <mxCell id="R9i5wPIuISrtGQEBOl63-15" value="策略管理器" style="rounded=1;whiteSpace=wrap;html=1;" parent="1" vertex="1">
          <mxGeometry x="439.75" y="617.5" width="249" height="80" as="geometry" />
        </mxCell>
        <mxCell id="lOrVEeAkQtlxeltVuI04-42" style="rounded=0;orthogonalLoop=1;jettySize=auto;html=1;exitX=0.5;exitY=0;exitDx=0;exitDy=0;entryX=0.5;entryY=1;entryDx=0;entryDy=0;" edge="1" parent="1" source="R9i5wPIuISrtGQEBOl63-16" target="lOrVEeAkQtlxeltVuI04-37">
          <mxGeometry relative="1" as="geometry" />
        </mxCell>
        <mxCell id="lOrVEeAkQtlxeltVuI04-43" style="rounded=0;orthogonalLoop=1;jettySize=auto;html=1;exitX=0.5;exitY=0;exitDx=0;exitDy=0;" edge="1" parent="1" source="R9i5wPIuISrtGQEBOl63-16" target="lOrVEeAkQtlxeltVuI04-38">
          <mxGeometry relative="1" as="geometry">
            <mxPoint x="280" y="610" as="sourcePoint" />
          </mxGeometry>
        </mxCell>
        <mxCell id="R9i5wPIuISrtGQEBOl63-16" value="策略管理器" style="rounded=1;whiteSpace=wrap;html=1;" parent="1" vertex="1">
          <mxGeometry x="162.5" y="615" width="230" height="85" as="geometry" />
        </mxCell>
        <mxCell id="0-dD-s0z4eZFYw8BseGD-2" value="1. 客户端链接&amp;nbsp; 本地缓存一份、redis一份、 广播一份 （机构ID,&amp;nbsp; serverId）" style="text;html=1;align=center;verticalAlign=middle;whiteSpace=wrap;rounded=0;" parent="1" vertex="1">
          <mxGeometry x="-327.5" y="390" width="317.5" height="30" as="geometry" />
        </mxCell>
        <mxCell id="0-dD-s0z4eZFYw8BseGD-7" value="ZK集群" style="rounded=1;whiteSpace=wrap;html=1;" parent="1" vertex="1">
          <mxGeometry x="10" y="617.5" width="80" height="292.5" as="geometry" />
        </mxCell>
        <mxCell id="0-dD-s0z4eZFYw8BseGD-8" value="Redis集群" style="rounded=1;whiteSpace=wrap;html=1;" parent="1" vertex="1">
          <mxGeometry x="10" y="365" width="80" height="220" as="geometry" />
        </mxCell>
        <mxCell id="0-dD-s0z4eZFYw8BseGD-14" value="" style="rounded=1;whiteSpace=wrap;html=1;" parent="1" vertex="1">
          <mxGeometry x="-705" y="1120" width="550" height="40" as="geometry" />
        </mxCell>
        <mxCell id="0-dD-s0z4eZFYw8BseGD-15" value="通用消息格式" style="text;html=1;align=center;verticalAlign=middle;whiteSpace=wrap;rounded=0;" parent="1" vertex="1">
          <mxGeometry x="-560" y="1040" width="180" height="30" as="geometry" />
        </mxCell>
        <mxCell id="0-dD-s0z4eZFYw8BseGD-16" value="" style="rounded=1;whiteSpace=wrap;html=1;" parent="1" vertex="1">
          <mxGeometry x="-705" y="1120" width="350" height="40" as="geometry" />
        </mxCell>
        <mxCell id="0-dD-s0z4eZFYw8BseGD-18" value="包头" style="text;html=1;align=center;verticalAlign=middle;whiteSpace=wrap;rounded=0;" parent="1" vertex="1">
          <mxGeometry x="-685" y="1080" width="60" height="30" as="geometry" />
        </mxCell>
        <mxCell id="0-dD-s0z4eZFYw8BseGD-19" value="包体" style="text;html=1;align=center;verticalAlign=middle;whiteSpace=wrap;rounded=0;" parent="1" vertex="1">
          <mxGeometry x="-290" y="1125" width="60" height="30" as="geometry" />
        </mxCell>
        <mxCell id="0-dD-s0z4eZFYw8BseGD-20" value="src" style="rounded=1;whiteSpace=wrap;html=1;" parent="1" vertex="1">
          <mxGeometry x="-705" y="1120" width="70" height="40" as="geometry" />
        </mxCell>
        <mxCell id="0-dD-s0z4eZFYw8BseGD-21" value="target" style="rounded=1;whiteSpace=wrap;html=1;" parent="1" vertex="1">
          <mxGeometry x="-635" y="1120" width="100" height="40" as="geometry" />
        </mxCell>
        <mxCell id="0-dD-s0z4eZFYw8BseGD-23" value="server_id" style="text;html=1;align=center;verticalAlign=middle;whiteSpace=wrap;rounded=0;" parent="1" vertex="1">
          <mxGeometry x="308.75" y="662.5" width="60" height="30" as="geometry" />
        </mxCell>
        <mxCell id="0-dD-s0z4eZFYw8BseGD-24" value="server_id" style="text;html=1;align=center;verticalAlign=middle;whiteSpace=wrap;rounded=0;" parent="1" vertex="1">
          <mxGeometry x="618.75" y="652.5" width="60" height="30" as="geometry" />
        </mxCell>
        <mxCell id="0-dD-s0z4eZFYw8BseGD-25" value="server_id" style="text;html=1;align=center;verticalAlign=middle;whiteSpace=wrap;rounded=0;" parent="1" vertex="1">
          <mxGeometry x="873.75" y="652.5" width="60" height="30" as="geometry" />
        </mxCell>
        <mxCell id="0-dD-s0z4eZFYw8BseGD-26" value="&lt;div style=&quot;background-color:#ffffff;color:#080808&quot;&gt;&lt;pre style=&quot;font-family:&#39;JetBrains Mono&#39;,monospace;font-size:9.8pt;&quot;&gt;&lt;span style=&quot;color:#871094;&quot;&gt;timestamp&lt;/span&gt;&lt;/pre&gt;&lt;/div&gt;" style="rounded=1;whiteSpace=wrap;html=1;" parent="1" vertex="1">
          <mxGeometry x="-535" y="1120" width="90" height="40" as="geometry" />
        </mxCell>
        <mxCell id="0-dD-s0z4eZFYw8BseGD-27" value="&lt;div style=&quot;background-color: rgb(255, 255, 255); color: rgb(8, 8, 8);&quot;&gt;&lt;pre style=&quot;font-family:&#39;JetBrains Mono&#39;,monospace;font-size:9.8pt;&quot;&gt;&lt;span style=&quot;color: rgb(0, 0, 0); font-family: Helvetica; font-size: 12px; white-space: normal; background-color: rgb(251, 251, 251);&quot;&gt;包体length&lt;/span&gt;&lt;/pre&gt;&lt;/div&gt;" style="rounded=1;whiteSpace=wrap;html=1;" parent="1" vertex="1">
          <mxGeometry x="-445" y="1120" width="90" height="40" as="geometry" />
        </mxCell>
        <mxCell id="0-dD-s0z4eZFYw8BseGD-30" value="target_server_id" style="text;html=1;align=center;verticalAlign=middle;whiteSpace=wrap;rounded=0;" parent="1" vertex="1">
          <mxGeometry x="-615" y="1190" width="60" height="30" as="geometry" />
        </mxCell>
        <mxCell id="0-dD-s0z4eZFYw8BseGD-31" value="" style="rounded=1;whiteSpace=wrap;html=1;" parent="1" vertex="1">
          <mxGeometry x="-710" y="600" width="550" height="40" as="geometry" />
        </mxCell>
        <mxCell id="0-dD-s0z4eZFYw8BseGD-32" value="通用消息格式" style="text;html=1;align=center;verticalAlign=middle;whiteSpace=wrap;rounded=0;" parent="1" vertex="1">
          <mxGeometry x="-555" y="520" width="180" height="30" as="geometry" />
        </mxCell>
        <mxCell id="0-dD-s0z4eZFYw8BseGD-33" value="" style="rounded=1;whiteSpace=wrap;html=1;" parent="1" vertex="1">
          <mxGeometry x="-710" y="600" width="350" height="40" as="geometry" />
        </mxCell>
        <mxCell id="0-dD-s0z4eZFYw8BseGD-34" value="包头" style="text;html=1;align=center;verticalAlign=middle;whiteSpace=wrap;rounded=0;" parent="1" vertex="1">
          <mxGeometry x="-690" y="560" width="60" height="30" as="geometry" />
        </mxCell>
        <mxCell id="0-dD-s0z4eZFYw8BseGD-35" value="包体" style="text;html=1;align=center;verticalAlign=middle;whiteSpace=wrap;rounded=0;" parent="1" vertex="1">
          <mxGeometry x="-260" y="605" width="60" height="30" as="geometry" />
        </mxCell>
        <mxCell id="0-dD-s0z4eZFYw8BseGD-36" value="src" style="rounded=1;whiteSpace=wrap;html=1;" parent="1" vertex="1">
          <mxGeometry x="-710" y="600" width="70" height="40" as="geometry" />
        </mxCell>
        <mxCell id="0-dD-s0z4eZFYw8BseGD-37" value="target" style="rounded=1;whiteSpace=wrap;html=1;" parent="1" vertex="1">
          <mxGeometry x="-640" y="600" width="100" height="40" as="geometry" />
        </mxCell>
        <mxCell id="0-dD-s0z4eZFYw8BseGD-38" value="&lt;div style=&quot;background-color:#ffffff;color:#080808&quot;&gt;&lt;pre style=&quot;font-family:&#39;JetBrains Mono&#39;,monospace;font-size:9.8pt;&quot;&gt;&lt;span style=&quot;color:#871094;&quot;&gt;timestamp&lt;/span&gt;&lt;/pre&gt;&lt;/div&gt;" style="rounded=1;whiteSpace=wrap;html=1;" parent="1" vertex="1">
          <mxGeometry x="-540" y="600" width="90" height="40" as="geometry" />
        </mxCell>
        <mxCell id="0-dD-s0z4eZFYw8BseGD-39" value="&lt;div style=&quot;background-color: rgb(255, 255, 255); color: rgb(8, 8, 8);&quot;&gt;&lt;pre style=&quot;font-family:&#39;JetBrains Mono&#39;,monospace;font-size:9.8pt;&quot;&gt;&lt;span style=&quot;color: rgb(0, 0, 0); font-family: Helvetica; font-size: 12px; white-space: normal; background-color: rgb(251, 251, 251);&quot;&gt;包体length&lt;/span&gt;&lt;/pre&gt;&lt;/div&gt;" style="rounded=1;whiteSpace=wrap;html=1;" parent="1" vertex="1">
          <mxGeometry x="-450" y="600" width="90" height="40" as="geometry" />
        </mxCell>
        <mxCell id="0-dD-s0z4eZFYw8BseGD-40" value="server_id" style="text;html=1;align=center;verticalAlign=middle;whiteSpace=wrap;rounded=0;" parent="1" vertex="1">
          <mxGeometry x="-705" y="670" width="60" height="30" as="geometry" />
        </mxCell>
        <mxCell id="0-dD-s0z4eZFYw8BseGD-41" value="机构id" style="text;html=1;align=center;verticalAlign=middle;whiteSpace=wrap;rounded=0;" parent="1" vertex="1">
          <mxGeometry x="-620" y="670" width="60" height="30" as="geometry" />
        </mxCell>
        <mxCell id="0-dD-s0z4eZFYw8BseGD-42" value="机构id" style="text;html=1;align=center;verticalAlign=middle;whiteSpace=wrap;rounded=0;" parent="1" vertex="1">
          <mxGeometry x="-705" y="1190" width="60" height="30" as="geometry" />
        </mxCell>
        <mxCell id="lOrVEeAkQtlxeltVuI04-28" style="rounded=0;orthogonalLoop=1;jettySize=auto;html=1;exitX=0.5;exitY=0;exitDx=0;exitDy=0;entryX=0.5;entryY=1;entryDx=0;entryDy=0;" edge="1" parent="1" source="lOrVEeAkQtlxeltVuI04-24" target="lOrVEeAkQtlxeltVuI04-11">
          <mxGeometry relative="1" as="geometry" />
        </mxCell>
        <mxCell id="lOrVEeAkQtlxeltVuI04-31" value="策略管理器拉取数据" style="edgeLabel;html=1;align=center;verticalAlign=middle;resizable=0;points=[];" vertex="1" connectable="0" parent="lOrVEeAkQtlxeltVuI04-28">
          <mxGeometry x="-0.2659" y="3" relative="1" as="geometry">
            <mxPoint as="offset" />
          </mxGeometry>
        </mxCell>
        <mxCell id="lOrVEeAkQtlxeltVuI04-24" value="网关" style="rounded=0;whiteSpace=wrap;html=1;" vertex="1" parent="1">
          <mxGeometry x="144.25" y="894.17" width="247.5" height="40" as="geometry" />
        </mxCell>
        <mxCell id="lOrVEeAkQtlxeltVuI04-29" style="rounded=0;orthogonalLoop=1;jettySize=auto;html=1;exitX=0.5;exitY=0;exitDx=0;exitDy=0;" edge="1" parent="1" source="lOrVEeAkQtlxeltVuI04-25" target="lOrVEeAkQtlxeltVuI04-11">
          <mxGeometry relative="1" as="geometry">
            <mxPoint x="560" y="780" as="targetPoint" />
          </mxGeometry>
        </mxCell>
        <mxCell id="lOrVEeAkQtlxeltVuI04-32" value="策略管理器拉取数据" style="edgeLabel;html=1;align=center;verticalAlign=middle;resizable=0;points=[];" vertex="1" connectable="0" parent="lOrVEeAkQtlxeltVuI04-29">
          <mxGeometry x="0.1275" y="2" relative="1" as="geometry">
            <mxPoint y="1" as="offset" />
          </mxGeometry>
        </mxCell>
        <mxCell id="lOrVEeAkQtlxeltVuI04-25" value="网关" style="rounded=0;whiteSpace=wrap;html=1;" vertex="1" parent="1">
          <mxGeometry x="448" y="894.17" width="247.5" height="40" as="geometry" />
        </mxCell>
        <mxCell id="lOrVEeAkQtlxeltVuI04-30" style="rounded=0;orthogonalLoop=1;jettySize=auto;html=1;exitX=0.5;exitY=0;exitDx=0;exitDy=0;" edge="1" parent="1" source="lOrVEeAkQtlxeltVuI04-26">
          <mxGeometry relative="1" as="geometry">
            <mxPoint x="560" y="770" as="targetPoint" />
          </mxGeometry>
        </mxCell>
        <mxCell id="lOrVEeAkQtlxeltVuI04-33" value="策略管理器拉取数据" style="edgeLabel;html=1;align=center;verticalAlign=middle;resizable=0;points=[];" vertex="1" connectable="0" parent="lOrVEeAkQtlxeltVuI04-30">
          <mxGeometry x="-0.2081" y="-4" relative="1" as="geometry">
            <mxPoint x="-1" as="offset" />
          </mxGeometry>
        </mxCell>
        <mxCell id="lOrVEeAkQtlxeltVuI04-26" value="网关" style="rounded=0;whiteSpace=wrap;html=1;" vertex="1" parent="1">
          <mxGeometry x="738" y="894.17" width="247.5" height="40" as="geometry" />
        </mxCell>
        <mxCell id="lOrVEeAkQtlxeltVuI04-34" value="1. RAFT 算法 找到主节点， 若崩溃则动态玄奇主节点" style="text;html=1;align=center;verticalAlign=middle;whiteSpace=wrap;rounded=0;" vertex="1" parent="1">
          <mxGeometry x="145" y="701" width="370" height="19" as="geometry" />
        </mxCell>
        <mxCell id="lOrVEeAkQtlxeltVuI04-35" value="2. 数据拉取、定序" style="text;html=1;align=center;verticalAlign=middle;whiteSpace=wrap;rounded=0;" vertex="1" parent="1">
          <mxGeometry x="145" y="720" width="370" height="19" as="geometry" />
        </mxCell>
        <mxCell id="lOrVEeAkQtlxeltVuI04-36" value="网关" style="rounded=1;whiteSpace=wrap;html=1;" vertex="1" parent="1">
          <mxGeometry x="161.25" y="370" width="227.5" height="40" as="geometry" />
        </mxCell>
        <mxCell id="lOrVEeAkQtlxeltVuI04-37" value="网关" style="rounded=1;whiteSpace=wrap;html=1;" vertex="1" parent="1">
          <mxGeometry x="440" y="370" width="248.75" height="40" as="geometry" />
        </mxCell>
        <mxCell id="lOrVEeAkQtlxeltVuI04-38" value="网关" style="rounded=1;whiteSpace=wrap;html=1;" vertex="1" parent="1">
          <mxGeometry x="728.75" y="370" width="230" height="40" as="geometry" />
        </mxCell>
        <mxCell id="lOrVEeAkQtlxeltVuI04-41" style="rounded=0;orthogonalLoop=1;jettySize=auto;html=1;exitX=0.5;exitY=0;exitDx=0;exitDy=0;entryX=0.538;entryY=0.947;entryDx=0;entryDy=0;entryPerimeter=0;" edge="1" parent="1" source="R9i5wPIuISrtGQEBOl63-16" target="lOrVEeAkQtlxeltVuI04-36">
          <mxGeometry relative="1" as="geometry" />
        </mxCell>
      </root>
    </mxGraphModel>
  </diagram>
</mxfile>
